Coordinates
version=1
nRows=17
nColumns=40
inDegrees=yes

Units are S.I. units (second, meters, Newtons, ...)
If the header above contains a line with 'inDegrees', this indicates whether rotational values are in degrees (yes) or radians (no).

endheader
time	pelvis_tilt	pelvis_list	pelvis_rotation	pelvis_tx	pelvis_ty	pelvis_tz	hip_flexion_r	hip_adduction_r	hip_rotation_r	knee_angle_r	knee_angle_r_beta	ankle_angle_r	subtalar_angle_r	mtp_angle_r	hip_flexion_l	hip_adduction_l	hip_rotation_l	knee_angle_l	knee_angle_l_beta	ankle_angle_l	subtalar_angle_l	mtp_angle_l	lumbar_extension	lumbar_bending	lumbar_rotation	arm_flex_r	arm_add_r	arm_rot_r	elbow_flex_r	pro_sup_r	wrist_flex_r	wrist_dev_r	arm_flex_l	arm_add_l	arm_rot_l	elbow_flex_l	pro_sup_l	wrist_flex_l	wrist_dev_l
      0.34000000	     24.12523181	      2.63090508	      2.81155166	      0.57395003	      0.97824980	     -0.36137160	    -15.55090215	      0.91778710	     -9.74282329	     19.03628021	      0.33224577	     -3.44689297	      0.00000000	      0.00000000	    -16.32258246	     -0.91236002	      3.46675966	     57.14856663	      0.99743065	    -25.17326269	      0.00000000	      0.00000000	    -36.17356765	      1.73349713	     -1.48796961	      2.53805152	    -16.81513619	     13.04383480	     41.54292727	     73.92359675	      0.00000000	      0.00000000	      1.78297023	    -21.62515173	     20.37870326	     45.94418003	     77.12093659	      0.00000000	      0.00000000
      0.34400000	     24.48883046	      2.48973850	      2.91913457	      0.58026456	      0.97953721	     -0.36061177	    -16.90423885	      1.31427608	     -9.85096728	     17.91275942	      0.31263663	     -3.85124009	      0.00000000	      0.00000000	    -16.26160097	     -1.16220427	      3.54391599	     57.07601229	      0.99616434	    -24.03860172	      0.00000000	      0.00000000	    -36.41825007	      1.85383951	     -1.45262554	      2.53525978	    -16.73499548	     12.93416907	     41.81133775	     73.85078092	      0.00000000	      0.00000000	      1.51046251	    -21.72081777	     20.23742888	     45.98044756	     77.13000489	      0.00000000	      0.00000000
      0.34800000	     24.69834415	      2.51302685	      2.88236660	      0.58598442	      0.98061000	     -0.36010665	    -17.95066785	      1.43072159	     -9.84501078	     17.02011648	      0.29705707	     -4.06591049	      0.00000000	      0.00000000	    -15.97342735	     -1.14390099	      3.56833984	     56.98818038	      0.99463138	    -23.14469954	      0.00000000	      0.00000000	    -36.58002895	      1.78293894	     -1.47501063	      2.74484830	    -16.70988029	     13.10858501	     41.91991495	     73.92678613	      0.00000000	      0.00000000	      0.98982489	    -21.85145822	     19.83161729	     46.42605517	     77.21659766	      0.00000000	      0.00000000
      0.35200000	     24.68226142	      2.52824665	      2.70703130	      0.59109750	      0.98133196	     -0.35955697	    -18.37900356	      1.39852732	    -10.06542862	     16.82399035	      0.29363403	     -3.99743275	      0.00000000	      0.00000000	    -15.34118642	     -1.06051591	      3.44055597	     56.88140938	      0.99276788	    -22.89083789	      0.00000000	      0.00000000	    -36.58168618	      1.64551070	     -1.31643907	      2.95337837	    -16.71210318	     13.11429142	     42.09100712	     73.93586504	      0.00000000	      0.00000000	      0.91519815	    -21.88865865	     19.82013480	     46.30820403	     77.23656695	      0.00000000	      0.00000000
      0.35600000	     24.75550373	      2.48202949	      2.81457952	      0.59718088	      0.98198545	     -0.35902683	    -19.32309145	      1.65527866	    -10.38707039	     15.82677812	      0.27622939	     -4.24889229	      0.00000000	      0.00000000	    -14.83330846	     -1.18312577	      3.48157195	     56.99748951	      0.99479386	    -21.15630904	      0.00000000	      0.00000000	    -36.53199499	      1.67551990	     -1.28817777	      2.87006487	    -16.66451718	     12.98955030	     42.42704920	     74.02921322	      0.00000000	      0.00000000	      0.47069771	    -22.00671370	     19.52316407	     46.60686740	     77.53962020	      0.00000000	      0.00000000
      0.36000000	     24.73689866	      2.54541290	      2.72543860	      0.60262530	      0.98264134	     -0.35860026	    -19.96732329	      1.64767038	    -10.31345472	     15.22805879	      0.26577976	     -4.36162309	      0.00000000	      0.00000000	    -14.26143281	     -1.04171093	      3.46619087	     56.89601123	      0.99302273	    -20.23595883	      0.00000000	      0.00000000	    -36.47528693	      1.53072976	     -1.20599361	      2.94429216	    -16.66223434	     12.98808407	     42.70321633	     74.03934003	      0.00000000	      0.00000000	      0.35923672	    -21.97003174	     19.55427264	     46.49913761	     77.51536832	      0.00000000	      0.00000000
      0.36400000	     24.66565521	      2.55715775	      2.61283697	      0.60791328	      0.98308577	     -0.35792926	    -20.50321326	      1.69632576	    -10.44146750	     14.66666270	      0.25598155	     -4.44467970	      0.00000000	      0.00000000	    -13.60167378	     -0.99093332	      3.38567369	     56.77312589	      0.99087797	    -19.46203770	      0.00000000	      0.00000000	    -36.39547840	      1.39325103	     -1.05939642	      3.05923964	    -16.61480584	     12.86790345	     42.91566928	     74.04625848	      0.00000000	      0.00000000	     -0.00754118	    -22.12481741	     19.35327906	     46.90545933	     77.50423967	      0.00000000	      0.00000000
      0.36800000	     24.67570731	      2.51810920	      2.49923275	      0.61272757	      0.98371685	     -0.35740413	    -20.88079904	      1.73903274	    -10.62708893	     14.56783836	      0.25425674	     -4.39876588	      0.00000000	      0.00000000	    -12.99536551	     -0.96815860	      3.32154012	     56.54603216	      0.98691444	    -19.21565907	      0.00000000	      0.00000000	    -36.45158393	      1.34469739	     -0.92573872	      3.34594190	    -16.61514570	     12.85140213	     43.04658600	     74.05403617	      0.00000000	      0.00000000	     -0.05777073	    -22.14780784	     19.35441304	     46.83556395	     77.50333358	      0.00000000	      0.00000000
      0.37200000	     24.74313270	      2.41694349	      2.58025125	      0.61875823	      0.98419729	     -0.35689763	    -21.86839869	      2.05318277	    -10.57266987	     13.48546930	      0.23536584	     -4.83212195	      0.00000000	      0.00000000	    -12.57905237	     -1.05594522	      3.46470997	     56.41669627	      0.98465710	    -18.17943094	      0.00000000	      0.00000000	    -36.40975309	      1.41513873	     -0.91988470	      3.34813434	    -16.61199830	     12.92186768	     43.31509129	     74.15941263	      0.00000000	      0.00000000	     -0.58606295	    -22.24498038	     18.90269429	     47.20499577	     77.63382954	      0.00000000	      0.00000000
      0.37600000	     24.78539339	      2.41240097	      2.01900032	      0.62319085	      0.98484797	     -0.35631481	    -22.32280728	      1.89965667	    -10.17360675	     13.17539732	      0.22995406	     -4.89582778	      0.00000000	      0.00000000	    -12.13612838	     -0.80853130	      3.06258397	     56.06895110	      0.97858780	    -17.47145295	      0.00000000	      0.00000000	    -36.54913351	      1.13861773	     -0.43080744	      3.57736273	    -16.81882933	     13.05251045	     43.70801113	     74.15827202	      0.00000000	      0.00000000	     -0.48133911	    -22.09425526	     18.90458712	     46.95502505	     77.60502432	      0.00000000	      0.00000000
      0.38000000	     24.66671242	      2.44300582	      1.90475312	      0.62843266	      0.98511949	     -0.35571540	    -22.69065714	      1.89208519	    -10.44050375	     12.86123833	      0.22447095	     -4.85412685	      0.00000000	      0.00000000	    -11.44959759	     -0.74276447	      2.93397199	     55.77744572	      0.97350008	    -16.92435030	      0.00000000	      0.00000000	    -36.41260447	      0.98393297	     -0.26318108	      3.70167357	    -16.78506030	     12.99083300	     43.88843061	     74.14477943	      0.00000000	      0.00000000	     -0.70118660	    -22.16759755	     18.73177542	     47.12161474	     77.62062676	      0.00000000	      0.00000000
      0.38400000	     24.63639981	      2.26178027	      1.59059397	      0.63383515	      0.98538037	     -0.35484749	    -23.20719506	      2.05223453	    -10.19285363	     12.39863765	      0.21639705	     -4.96619311	      0.00000000	      0.00000000	    -10.88196273	     -0.95950861	      2.48888977	     55.54540678	      0.96945023	    -15.06904079	      0.00000000	      0.00000000	    -36.35968228	      0.94293199	      0.10066131	      3.84766201	    -16.82314613	     12.97752624	     44.15571225	     74.10453372	      0.00000000	      0.00000000	     -0.93747862	    -22.14859072	     18.59786290	     47.22404357	     77.58461837	      0.00000000	      0.00000000
      0.38800000	     24.50273050	      2.22178791	      1.47653667	      0.63898063	      0.98555766	     -0.35436358	    -23.53464015	      2.10045631	    -10.32940670	     12.11413086	      0.21143147	     -4.93450647	      0.00000000	      0.00000000	    -10.19138150	     -0.97946020	      2.31030677	     55.13516928	      0.96229024	    -14.72061766	      0.00000000	      0.00000000	    -36.22208358	      0.87680248	      0.22983262	      3.97982537	    -16.87173628	     13.02462116	     44.42810567	     74.09284523	      0.00000000	      0.00000000	     -0.99236523	    -22.13720825	     18.50486168	     47.06272537	     77.59180860	      0.00000000	      0.00000000
      0.39200000	     24.44481661	      2.19289643	      1.38852137	      0.64339794	      0.98582493	     -0.35402158	    -23.85738884	      2.12429760	    -10.41401602	     11.89888970	      0.20767480	     -4.92454577	      0.00000000	      0.00000000	     -9.47809924	     -0.91715351	      2.15643623	     54.76279016	      0.95579100	    -14.34482394	      0.00000000	      0.00000000	    -36.25251165	      0.83853095	      0.37612773	      4.22843053	    -16.89371826	     13.00993403	     44.66996627	     74.08027616	      0.00000000	      0.00000000	     -1.01853059	    -22.15136748	     18.45614399	     47.09919817	     77.59511974	      0.00000000	      0.00000000
      0.39600000	     24.53983683	      2.10046160	      1.34729055	      0.64932715	      0.98604941	     -0.35321574	    -24.82314463	      2.40994151	    -10.38809021	     10.86418853	      0.18961586	     -5.29793364	      0.00000000	      0.00000000	     -9.16223513	     -1.05073928	      2.15855664	     54.45102075	      0.95034959	    -13.30791406	      0.00000000	      0.00000000	    -36.26994011	      0.82831327	      0.49748434	      4.23105422	    -16.87944209	     12.98056332	     45.02698698	     73.94995188	      0.00000000	      0.00000000	     -1.54705960	    -22.32562488	     18.24758711	     47.62459525	     77.49904170	      0.00000000	      0.00000000
      0.40000000	     24.48404247	      2.01331551	      1.21134346	      0.65367840	      0.98612983	     -0.35285200	    -25.09638229	      2.45694177	    -10.54900922	     10.77287591	      0.18802215	     -5.21827683	      0.00000000	      0.00000000	     -8.54002011	     -1.00829950	      2.15891519	     54.08537875	      0.94396794	    -13.26851866	      0.00000000	      0.00000000	    -36.30168647	      0.81744383	      0.70093131	      4.54667694	    -16.93878904	     12.96316939	     45.22779788	     73.94841147	      0.00000000	      0.00000000	     -1.62996950	    -22.37150690	     18.24889574	     47.73888789	     77.49691467	      0.00000000	      0.00000000
      0.40400000	     24.28646258	      2.01302545	      0.99963314	      0.65896993	      0.98603056	     -0.35240184	    -25.41993747	      2.43375023	    -10.42614655	     10.36920769	      0.18097682	     -5.13186942	      0.00000000	      0.00000000	     -7.87287713	     -0.91850322	      1.99852375	     53.53183945	      0.93430685	    -12.82910661	      0.00000000	      0.00000000	    -36.09506481	      0.67224218	      0.87775491	      4.61537165	    -17.06499582	     13.18852668	     45.65952476	     73.90911796	      0.00000000	      0.00000000	     -1.66958282	    -22.25454924	     17.98032814	     47.50899111	     77.48815850	      0.00000000	      0.00000000
